<?xml version="1.0" standalone="no"?>
<!DOCTYPE svg PUBLIC "-//W3C//DTD SVG 20010904//EN"
 "http://www.w3.org/TR/2001/REC-SVG-20010904/DTD/svg10.dtd">
<svg version="1.0" xmlns="http://www.w3.org/2000/svg"
 width="1430.000000pt" height="1311.000000pt" viewBox="0 0 1430.000000 1311.000000"
 preserveAspectRatio="xMidYMid meet">
<metadata>
Created by potrace 1.13, written by Peter Selinger 2001-2015
</metadata>
<g transform="translate(0.000000,1311.000000) scale(0.100000,-0.100000)"
fill="#000000" stroke="none">
<path d="M8750 11664 c-548 -86 -1480 -416 -2754 -974 -732 -320 -1649 -773
-2246 -1108 -650 -366 -1019 -637 -1117 -824 -25 -47 -28 -63 -28 -143 1 -77
5 -97 27 -140 32 -61 59 -87 118 -114 87 -40 213 -20 289 46 29 24 56 62 80
112 32 67 47 84 136 159 279 235 649 478 1160 762 241 134 1023 526 1333 668
707 325 1654 703 2282 912 434 145 820 240 820 202 0 -17 -113 -183 -190 -277
-399 -491 -1210 -1249 -2320 -2171 -139 -115 -258 -212 -265 -217 -15 -8 -20
-34 74 358 113 472 137 650 111 826 -21 145 -51 189 -131 189 -40 0 -54 -6
-94 -39 -25 -21 -64 -43 -85 -50 -59 -17 -154 -110 -189 -184 -26 -55 -30 -76
-35 -187 -3 -72 -12 -144 -20 -169 -9 -23 -32 -147 -51 -274 -95 -618 -155
-883 -217 -962 -23 -30 -145 -112 -407 -276 -226 -141 -263 -172 -290 -245
-41 -108 -22 -243 40 -301 53 -49 117 -68 225 -68 97 0 105 2 173 37 39 20 71
32 71 27 0 -6 -18 -100 -40 -211 -81 -402 -228 -1009 -545 -2258 -113 -443
-218 -870 -235 -948 -17 -79 -40 -172 -51 -205 -25 -75 -74 -154 -100 -162
-86 -28 -77 -214 17 -324 71 -82 162 -103 253 -57 66 34 106 84 162 201 150
314 288 851 674 2620 224 1026 335 1478 404 1637 l20 46 138 45 c426 139 1313
359 1998 496 1723 344 2977 389 3663 131 58 -22 116 -50 128 -61 90 -84 126
-392 76 -646 -118 -596 -501 -1215 -1182 -1907 -784 -797 -1865 -1589 -3140
-2298 -1833 -1020 -3574 -1598 -5124 -1699 -231 -15 -849 -6 -1036 16 -74 8
-171 18 -216 21 -79 7 -81 6 -102 -21 -55 -70 -16 -119 168 -214 195 -101 411
-161 710 -197 197 -24 646 -24 890 0 777 76 1663 288 2575 618 2274 822 4430
2195 5876 3741 260 278 511 651 729 1082 158 314 258 589 312 857 30 152 32
423 4 542 -61 264 -220 468 -456 586 -586 294 -1803 244 -4742 -196 -164 -24
-303 -44 -308 -44 -6 0 80 77 192 172 733 621 1110 960 1488 1338 439 438 681
741 825 1032 74 151 99 241 98 358 -1 107 -27 180 -88 248 -71 79 -120 95
-295 99 -92 1 -179 -3 -240 -13z"/>
</g>
</svg>
